PathFileType	4	(X/Y/Z)	57_2_45_p0_0-343_filt_butterworth.trc
DataRate	CameraRate	NumFrames	NumMarkers	Units	OrigDataRate	OrigDataStartFrame	OrigNumFrames
60.0	60.0	5	27	m	60.0	85	343
Frame#	Time	RHip			RKnee			RAnkle			RBigToe			RSmallToe			RHeel			LHip			LKnee			LAnkle			LBigToe			LSmallToe			LHeel			Neck			Head			Nose			RShoulder			RElbow			RWrist			RThumb			RIndex			RPinky			LShoulder			LElbow			LWrist			LThumb			LIndex			LPinky			
		X1	Y1	Z1	X2	Y2	Z2	X3	Y3	Z3	X4	Y4	Z4	X5	Y5	Z5	X6	Y6	Z6	X7	Y7	Z7	X8	Y8	Z8	X9	Y9	Z9	X10	Y10	Z10	X11	Y11	Z11	X12	Y12	Z12	X13	Y13	Z13	X14	Y14	Z14	X15	Y15	Z15	X16	Y16	Z16	X17	Y17	Z17	X18	Y18	Z18	X19	Y19	Z19	X20	Y20	Z20	X21	Y21	Z21	X22	Y22	Z22	X23	Y23	Z23	X24	Y24	Z24	X25	Y25	Z25	X26	Y26	Z26	X27	Y27	Z27	
85	1.4166666666666667	0.20685562240631866	0.5573769447058484	0.9207694704324063	0.2638118190742	0.7367059989825457	1.3445881753841633	0.2831085218545377	0.888299678398244	1.764168133402222	0.2445190016540254	0.7301976654332275	1.81814123659312	0.3027623814355865	0.7484226423490532	1.8081411183353193	0.2575984183549983	0.9990791802975008	1.8129581500177459	0.01589902663208599	0.5864188461278914	0.9294158394178502	0.03200902680633405	0.7385458694392207	1.3687520844697065	0.06647909349077337	0.8813552044490987	1.7642165972980342	0.08559003497952176	0.7713887603351011	1.832616712556035	0.03210473030195403	0.7840401457015551	1.8311128145534274	0.09608762318720548	0.9282031390371236	1.797339390011451	0.13349850741718652	0.38813637690222513	0.4234051380356954	0.1931850453391672	0.2724125803060651	0.21426870219534253	0.16557426575951606	0.25268134768473766	0.346303486132326	0.24238653212442388	0.4374679052429116	0.5074489443160798	0.27437978297037996	0.4895512719266273	0.7740092549692912	0.1797715837730478	0.5082357187387504	0.9943222722108778	0.09937104759652989	0.4787514027992237	1.0985190437104688	0.10206246237469334	0.5011761394323528	1.1071375301580604	0.12073636665384388	0.5011416441291707	1.110711362918752	-0.02687562200685894	0.405621036166434	0.5101361982957906	-0.05264565707685147	0.45896155745942385	0.7636934483168668	0.03793938701607169	0.42821045703106997	0.9871057080533551	0.13235809914995494	0.4400388281397387	1.0576639926676	0.138022880234272	0.4538698344917721	1.0963068869114514	0.09739112952453996	0.505527539952999	1.1091618758842745
86	1.4333333333333331	0.20806381490613748	0.5591954934132372	0.9211899463043421	0.26392123332899575	0.7366354331175383	1.3458705505468074	0.28080496667795823	0.8939961749082949	1.7658576954440168	0.24401496749977905	0.7283027153713162	1.8181050212616394	0.3026946129250001	0.747915718841402	1.8068112883029963	0.25652141691079344	0.998727154144387	1.8133416774032765	0.017058430128682866	0.58973289939391	0.928798578115392	0.03196589936900076	0.7377665233262144	1.3681986243668236	0.06643933015011706	0.8808097817190764	1.764152390091589	0.08531842861157946	0.7710179323139985	1.8325646026247915	0.03206695179083516	0.7836198929920657	1.8310118845430488	0.09599241457945931	0.9283951407870286	1.7964879038299697	0.1360183373282381	0.3833482241464346	0.423580117653288	0.1973382799559359	0.27142186342470864	0.21607795910623462	0.17177795148900804	0.2483841900646075	0.34759249148656646	0.24451671189882174	0.43835949653783995	0.5098416930353338	0.27572694270030934	0.490230593670902	0.7733132902860882	0.1796715331324618	0.5080120298521918	0.9954489576292057	0.10324784665606328	0.47615659034437624	1.100885316903901	0.10489612920603045	0.49704780428200884	1.106846319596328	0.12287706285818811	0.49742764200842804	1.1102552880934242	-0.02487107374636846	0.40363909008207893	0.5100092979215555	-0.04844467624044639	0.4581029641462082	0.7636352691474109	0.03979384962928958	0.4298569289098668	0.986683838547857	0.1356071436992533	0.4422055330648864	1.0611788487000542	0.14012898543077862	0.45283100274622706	1.0968833262752535	0.0984460375675485	0.5057370700361802	1.108927779743961
87	1.45	0.20904464041675894	0.563083388713256	0.9205506519725128	0.2640837707789532	0.7380521513727196	1.3465676344942656	0.2777651229087723	0.8983241953064378	1.767189438030464	0.24359267142616386	0.7269230788760952	1.818030446442021	0.30176889339712265	0.7476141365120039	1.8080042055612853	0.25517303611400954	0.9980003280450702	1.8142671439935634	0.017619511976763272	0.5910408015183775	0.9286860593215013	0.03197428356505912	0.737522954877872	1.368103843231137	0.06662487176456301	0.8804741303733732	1.7641052323115645	0.08407231547310048	0.7730682350437065	1.8332623059626936	0.03203622151034579	0.7834365757616623	1.8309763663585192	0.09589770460991259	0.9280407820028891	1.7962513367064534	0.13832419893738862	0.38192737323120085	0.4234460111471051	0.20107837805927026	0.271903296884304	0.21707803421381283	0.1779106189810346	0.2451924258394447	0.34922441849590014	0.24610111444220714	0.4392620133453644	0.5116089435325258	0.2766856077463713	0.49056086763178286	0.772783534531738	0.17988007413937643	0.5080859279081859	0.997205116608687	0.10658251078073203	0.4796512676669705	1.1034342486032656	0.10688392730506642	0.4971219366102327	1.1068533795145525	0.12517315679409005	0.4944574846417517	1.1097631149891365	-0.023637517185660407	0.40252258111535894	0.5095380021639013	-0.043924638085600966	0.4587155233407073	0.7634696362811432	0.04195891132992114	0.43000501635881294	0.986606901161156	0.13843221935210762	0.44766067618143407	1.0637991065722776	0.14204588969679557	0.4529847237000066	1.0968920514062153	0.09964168891709096	0.5061608577096337	1.1087949850720886
88	1.4666666666666666	0.20929947926223685	0.5675358522682844	0.9186257834781492	0.2643961506281913	0.7419165895720577	1.3466586577230366	0.2754428078123498	0.9000700429679205	1.767759516053888	0.24340431684099997	0.7263512467781017	1.8180511546176432	0.30052324578688844	0.7476756734369817	1.811056622722182	0.2542013879990768	0.9973772639673836	1.81548106066239	0.01771263366144911	0.5907751454095196	0.9287612567306188	0.03202527234994149	0.7375950118405106	1.368146969719298	0.06694191698432735	0.8805419423988308	1.764113176844409	0.0822044083550658	0.7755051746669395	1.833985861645669	0.032020613329178466	0.783484068280592	1.8310008612171478	0.09627028629875835	0.9280270839016403	1.7971437730757271	0.1404415951687057	0.382164946931844	0.4235309521856872	0.20528199495965238	0.27362475713177	0.2168770229049864	0.1842232446721553	0.24340757849437117	0.3506372114238609	0.24708167283619095	0.4398379773349264	0.5122245120345782	0.2771111455532948	0.490790963998022	0.7726215952466768	0.1809557217751714	0.5085252030255458	0.9991284504932828	0.10777311816149772	0.49157145990972106	1.1057750519164615	0.10686689961154952	0.5040430324342146	1.107338464181008	0.12790043929246486	0.4908523116860165	1.1089779407752756	-0.022849191483529502	0.4031667416843302	0.5082893059140531	-0.04041809651945138	0.45974851315245446	0.7629575174710296	0.04532283058420804	0.4300167769547653	0.9868374240136117	0.14147860346581362	0.45399402688280716	1.0652597673609239	0.1445069438796893	0.4534199614624058	1.0967636885662841	0.1005300900266275	0.5068821385860225	1.1092138151985016
89	1.4833333333333334	0.20958985343716197	0.5706045879807982	0.9171700759070098	0.26505180375861237	0.7473221078050363	1.346666893194793	0.2745107895516383	0.9001294732425839	1.7677951159499234	0.24341075388263655	0.7262988252367976	1.818459473462951	0.29977097220076643	0.7481661264448722	1.8137641049518014	0.2538635671244607	0.997080736830831	1.8164089001907657	0.01761938275171497	0.5900349207479026	0.928845073052862	0.032116796723057145	0.7377542461278763	1.3682191331555122	0.06743707667554147	0.8812855242879248	1.764236412771762	0.08044792211961307	0.777852005442815	1.8343639042973106	0.03201026495858194	0.7836111057361708	1.831043032195388	0.09699986034365726	0.9285053220544603	1.7986310813476658	0.14238588983752679	0.3826325682192188	0.42376854520464985	0.21032366937121383	0.27677937111362316	0.21546613338071255	0.19079017014542107	0.24316212439062632	0.3513367692281588	0.24785647997608976	0.44026188095066215	0.5121088865660504	0.2771752508112091	0.490911185918536	0.7726574324913497	0.18334174765630268	0.5090423674558238	1.0006336196235508	0.1079222859087122	0.5052414044850214	1.1071428379417885	0.1058775224411471	0.5131885649124743	1.1079494997335124	0.13129861742968799	0.4865461209149659	1.1077809604738125	-0.02237185380938742	0.40438093680937426	0.5064916247928806	-0.03828726208046683	0.46033591675496965	0.7619538866961574	0.049787736244526294	0.43073906653064176	0.9873330353726292	0.14486892917920172	0.45792447633435246	1.0661919473681003	0.1472178706071034	0.45368092010341593	1.0967392594454943	0.10151322658990898	0.507258549080774	1.1101572313407893
